ffmpeg started on 2016-12-01 at 23:51:41
Report written to "Output/x264/results/ffmpeg/old_town_cross_2160p50slower1000k.log"
Command line:
Tools/ffmpeg/ffmpeg -benchmark -y -i Input/y4m/old_town_cross_2160p50.y4m -c:v libx264 -preset slower -b:v 1000k -an Output/x264/encoded/old_town_cross_2160p50slower1000k.mkv
ffmpeg version N-82227-gdb23fde Copyright (c) 2000-2016 the FFmpeg developers
  built with gcc 5.4.0 (Ubuntu 5.4.0-6ubuntu1~16.04.2) 20160609
  configuration: --prefix=/home/jaroslav/ffmpeg_build --pkg-config-flags=--static --extra-cflags=-I/home/jaroslav/ffmpeg_build/include --extra-ldflags=-L/home/jaroslav/ffmpeg_build/lib --bindir=/home/jaroslav/bin --enable-gpl --enable-libass --enable-libfdk-aac --enable-libfreetype --enable-libmp3lame --enable-libopus --enable-libtheora --enable-libvorbis --enable-libvpx --enable-libx264 --enable-libx265 --enable-nvenc --enable-libmfx --enable-libxvid --enable-libgsm --enable-libopencore-amrnb --enable-version3 --enable-nonfree
  libavutil      55. 35.100 / 55. 35.100
  libavcodec     57. 66.101 / 57. 66.101
  libavformat    57. 57.100 / 57. 57.100
  libavdevice    57.  2.100 / 57.  2.100
  libavfilter     6. 66.100 /  6. 66.100
  libswscale      4.  3.100 /  4.  3.100
  libswresample   2.  4.100 /  2.  4.100
  libpostproc    54.  2.100 / 54.  2.100
Input #0, yuv4mpegpipe, from 'Input/y4m/old_town_cross_2160p50.y4m':
  Duration: 00:00:10.00, start: 0.000000, bitrate: 4976642 kb/s
    Stream #0:0: Video: rawvideo (I420 / 0x30323449), yuv420p(progressive), 3840x2160, SAR 1:1 DAR 16:9, 50 fps, 50 tbr, 50 tbn, 50 tbc
[libx264 @ 0x3f56120] using SAR=1/1
[libx264 @ 0x3f56120] DPB size (8 frames, 259200 mbs) > level limit (5 frames, 184320 mbs)
[libx264 @ 0x3f56120] using cpu capabilities: MMX2 SSE2Fast SSSE3 SSE4.2 AVX FMA3 AVX2 LZCNT BMI2
[libx264 @ 0x3f56120] profile High, level 5.2
[libx264 @ 0x3f56120] 264 - core 148 - H.264/MPEG-4 AVC codec - Copyleft 2003-2016 - http://www.videolan.org/x264.html - options: cabac=1 ref=8 deblock=1:0:0 analyse=0x3:0x133 me=umh subme=9 psy=1 psy_rd=1.00:0.00 mixed_ref=1 me_range=16 chroma_me=1 trellis=2 8x8dct=1 cqm=0 deadzone=21,11 fast_pskip=1 chroma_qp_offset=-2 threads=6 lookahead_threads=1 sliced_threads=0 nr=0 decimate=1 interlaced=0 bluray_compat=0 constrained_intra=0 bframes=3 b_pyramid=2 b_adapt=2 b_bias=0 direct=3 weightb=1 open_gop=0 weightp=2 keyint=250 keyint_min=25 scenecut=40 intra_refresh=0 rc_lookahead=60 rc=abr mbtree=1 bitrate=1000 ratetol=1.0 qcomp=0.60 qpmin=0 qpmax=69 qpstep=4 ip_ratio=1.40 aq=1:1.00
Output #0, matroska, to 'Output/x264/encoded/old_town_cross_2160p50slower1000k.mkv':
  Metadata:
    encoder         : Lavf57.57.100
    Stream #0:0: Video: h264 (libx264) (H264 / 0x34363248), yuv420p, 3840x2160 [SAR 1:1 DAR 16:9], q=-1--1, 1000 kb/s, 50 fps, 1k tbn, 50 tbc
    Metadata:
      encoder         : Lavc57.66.101 libx264
    Side data:
      cpb: bitrate max/min/avg: 0/0/1000000 buffer size: 0 vbv_delay: -1
Stream mapping:
  Stream #0:0 -> #0:0 (rawvideo (native) -> h264 (libx264))
Press [q] to stop, [?] for help
frame=   62 fps=0.0 q=0.0 size=       0kB time=00:00:00.00 bitrate=N/A speed=   0x    frame=   67 fps= 17 q=0.0 size=       0kB time=00:00:00.00 bitrate=N/A speed=   0x    frame=   75 fps= 15 q=57.0 size=       1kB time=00:00:00.04 bitrate= 143.6kbits/s speed=0.00845x    frame=   81 fps= 15 q=60.0 size=       1kB time=00:00:00.16 bitrate=  36.6kbits/s speed=0.0291x    frame=   84 fps= 13 q=61.0 size=       1kB time=00:00:00.22 bitrate=  26.6kbits/s speed=0.0355x    frame=   89 fps= 13 q=59.0 size=       1kB time=00:00:00.32 bitrate=  18.3kbits/s speed=0.0472x    frame=   92 fps= 13 q=59.0 size=       1kB time=00:00:00.38 bitrate=  15.5kbits/s speed=0.052x    frame=   96 fps= 12 q=59.0 size=       1kB time=00:00:00.46 bitrate=  12.8kbits/s speed=0.0562x    frame=  102 fps= 12 q=59.0 size=       1kB time=00:00:00.58 bitrate=  10.1kbits/s speed=0.0667x    frame=  103 fps= 11 q=59.0 size=       1kB time=00:00:00.60 bitrate=   9.8kbits/s speed=0.0645x    frame=  107 fps= 11 q=59.0 size=       1kB time=00:00:00.68 bitrate=   8.6kbits/s speed=0.0688x    frame=  111 fps= 11 q=58.0 size=       1kB time=00:00:00.76 bitrate=   7.7kbits/s speed=0.0727x    frame=  115 fps= 10 q=58.0 size=       1kB time=00:00:00.84 bitrate=   7.0kbits/s speed=0.0752x    frame=  121 fps= 10 q=58.0 size=       1kB time=00:00:00.96 bitrate=   6.1kbits/s speed=0.0823x    frame=  122 fps=9.9 q=58.0 size=       1kB time=00:00:00.98 bitrate=   6.0kbits/s speed=0.0795x    frame=  128 fps=9.8 q=58.0 size=       1kB time=00:00:01.10 bitrate=   5.3kbits/s speed=0.0846x    frame=  131 fps=9.6 q=57.0 size=       1kB time=00:00:01.16 bitrate=   5.1kbits/s speed=0.085x    frame=  134 fps=9.4 q=58.0 size=       1kB time=00:00:01.22 bitrate=   4.8kbits/s speed=0.086x    frame=  138 fps=9.4 q=57.0 size=       1kB time=00:00:01.30 bitrate=   4.5kbits/s speed=0.0882x    frame=  142 fps=9.2 q=57.0 size=       1kB time=00:00:01.38 bitrate=   4.3kbits/s speed=0.0895x    frame=  146 fps=9.0 q=57.0 size=       1kB time=00:00:01.46 bitrate=   4.0kbits/s speed=0.0898x    frame=  152 fps=8.8 q=57.0 size=       1kB time=00:00:01.58 bitrate=   3.7kbits/s speed=0.0914x    frame=  158 fps=8.7 q=57.0 size=       1kB time=00:00:01.70 bitrate=   3.5kbits/s speed=0.0936x    frame=  164 fps=8.8 q=57.0 size=       1kB time=00:00:01.82 bitrate=   3.2kbits/s speed=0.0975x    frame=  165 fps=8.5 q=57.0 size=       1kB time=00:00:01.84 bitrate=   3.2kbits/s speed=0.0951x    frame=  170 fps=8.6 q=57.0 size=       1kB time=00:00:01.94 bitrate=   3.0kbits/s speed=0.0977x    frame=  173 fps=8.4 q=57.0 size=       1kB time=00:00:02.00 bitrate=   2.9kbits/s speed=0.0971x    frame=  178 fps=8.4 q=57.0 size=       1kB time=00:00:02.10 bitrate=   2.8kbits/s speed=0.0994x    frame=  180 fps=8.3 q=57.0 size=       1kB time=00:00:02.14 bitrate=   2.8kbits/s speed=0.0984x    frame=  184 fps=8.2 q=57.0 size=       1kB time=00:00:02.22 bitrate=   2.7kbits/s speed=0.0995x    frame=  188 fps=8.2 q=57.0 size=       1kB time=00:00:02.30 bitrate=   2.6kbits/s speed= 0.1x    frame=  192 fps=8.0 q=57.0 size=       1kB time=00:00:02.38 bitrate=   2.5kbits/s speed=0.0998x    frame=  198 fps=8.1 q=57.0 size=       1kB time=00:00:02.50 bitrate=   2.4kbits/s speed=0.103x    frame=  199 fps=8.0 q=57.0 size=       1kB time=00:00:02.52 bitrate=   2.3kbits/s speed=0.101x    frame=  205 fps=7.9 q=57.0 size=       1kB time=00:00:02.64 bitrate=   2.2kbits/s speed=0.102x    frame=  211 fps=7.8 q=57.0 size=       1kB time=00:00:02.76 bitrate=   2.1kbits/s speed=0.102x    frame=  215 fps=7.8 q=57.0 size=       1kB time=00:00:02.84 bitrate=   2.1kbits/s speed=0.103x    frame=  219 fps=7.7 q=57.0 size=       1kB time=00:00:02.92 bitrate=   2.0kbits/s speed=0.103x    frame=  223 fps=7.7 q=57.0 size=       1kB time=00:00:03.00 bitrate=   2.0kbits/s speed=0.103x    frame=  228 fps=7.7 q=57.0 size=       1kB time=00:00:03.10 bitrate=   1.9kbits/s speed=0.105x    frame=  231 fps=7.6 q=57.0 size=       1kB time=00:00:03.16 bitrate=   1.9kbits/s speed=0.104x    frame=  235 fps=7.6 q=57.0 size=       1kB time=00:00:03.24 bitrate=   1.8kbits/s speed=0.105x    frame=  239 fps=7.6 q=57.0 size=       1kB time=00:00:03.32 bitrate=   1.8kbits/s speed=0.105x    frame=  243 fps=7.5 q=57.0 size=       1kB time=00:00:03.40 bitrate=   1.7kbits/s speed=0.105x    frame=  248 fps=7.5 q=57.0 size=       1kB time=00:00:03.50 bitrate=   1.7kbits/s speed=0.107x    frame=  250 fps=7.5 q=57.0 size=       1kB time=00:00:03.54 bitrate=   1.7kbits/s speed=0.106x    frame=  255 fps=7.5 q=57.0 size=       1kB time=00:00:03.64 bitrate=   1.6kbits/s speed=0.107x    frame=  258 fps=7.4 q=57.0 size=       1kB time=00:00:03.70 bitrate=   1.6kbits/s speed=0.106x    frame=  264 fps=7.4 q=57.0 size=       1kB time=00:00:03.82 bitrate=   1.5kbits/s speed=0.107x    frame=  266 fps=7.4 q=57.0 size=       1kB time=00:00:03.86 bitrate=   1.5kbits/s speed=0.107x    frame=  272 fps=7.3 q=57.0 size=       1kB time=00:00:03.98 bitrate=   1.5kbits/s speed=0.107x    frame=  278 fps=7.3 q=57.0 size=       1kB time=00:00:04.10 bitrate=   1.4kbits/s speed=0.108x    frame=  281 fps=7.3 q=57.0 size=       1kB time=00:00:04.16 bitrate=   1.4kbits/s speed=0.107x    frame=  285 fps=7.2 q=57.0 size=       1kB time=00:00:04.24 bitrate=   1.4kbits/s speed=0.108x    frame=  291 fps=7.2 q=57.0 size=       1kB time=00:00:04.36 bitrate=   1.4kbits/s speed=0.108x    frame=  295 fps=7.2 q=57.0 size=       1kB time=00:00:04.44 bitrate=   1.3kbits/s speed=0.109x    frame=  297 fps=7.2 q=57.0 size=       1kB time=00:00:04.48 bitrate=   1.3kbits/s speed=0.108x    frame=  303 fps=7.2 q=57.0 size=       1kB time=00:00:04.60 bitrate=   1.3kbits/s speed=0.109x    frame=  308 fps=7.2 q=57.0 size=       1kB time=00:00:04.70 bitrate=   1.3kbits/s speed=0.11x    frame=  309 fps=7.1 q=57.0 size=       1kB time=00:00:04.72 bitrate=   1.2kbits/s speed=0.109x    frame=  313 fps=7.1 q=57.0 size=       1kB time=00:00:04.80 bitrate=   1.2kbits/s speed=0.109x    frame=  318 fps=7.1 q=58.0 size=       1kB time=00:00:04.90 bitrate=   1.2kbits/s speed=0.11x    frame=  325 fps=7.2 q=58.0 size=     611kB time=00:00:05.04 bitrate= 993.3kbits/s speed=0.111x    frame=  330 fps=7.2 q=58.0 size=     611kB time=00:00:05.14 bitrate= 974.0kbits/s speed=0.112x    frame=  333 fps=7.2 q=58.0 size=     611kB time=00:00:05.20 bitrate= 962.8kbits/s speed=0.112x    frame=  335 fps=7.1 q=58.0 size=     611kB time=00:00:05.24 bitrate= 955.4kbits/s speed=0.111x    frame=  340 fps=7.1 q=58.0 size=     611kB time=00:00:05.34 bitrate= 937.6kbits/s speed=0.112x    frame=  343 fps=7.1 q=58.0 size=     611kB time=00:00:05.40 bitrate= 927.1kbits/s speed=0.112x    frame=  347 fps=7.1 q=58.0 size=     611kB time=00:00:05.48 bitrate= 913.6kbits/s speed=0.112x    frame=  350 fps=7.1 q=58.0 size=     611kB time=00:00:05.54 bitrate= 903.7kbits/s speed=0.112x    frame=  354 fps=7.0 q=58.0 size=     611kB time=00:00:05.62 bitrate= 890.8kbits/s speed=0.112x    frame=  360 fps=7.0 q=58.0 size=     611kB time=00:00:05.74 bitrate= 872.2kbits/s speed=0.112x    frame=  365 fps=7.0 q=58.0 size=     611kB time=00:00:05.84 bitrate= 857.3kbits/s speed=0.113x    frame=  368 fps=7.0 q=58.0 size=     611kB time=00:00:05.90 bitrate= 848.6kbits/s speed=0.112x    frame=  372 fps=7.0 q=58.0 size=     611kB time=00:00:05.98 bitrate= 837.2kbits/s speed=0.113x    frame=  375 fps=7.0 q=58.0 size=     611kB time=00:00:06.04 bitrate= 828.9kbits/s speed=0.112x    frame=  379 fps=7.0 q=58.0 size=     611kB time=00:00:06.12 bitrate= 818.1kbits/s speed=0.112x    frame=  383 fps=7.0 q=58.0 size=     611kB time=00:00:06.20 bitrate= 807.5kbits/s speed=0.113x    frame=  387 fps=7.0 q=58.0 size=     611kB time=00:00:06.28 bitrate= 797.2kbits/s speed=0.113x    frame=  391 fps=6.9 q=58.0 size=     611kB time=00:00:06.36 bitrate= 787.2kbits/s speed=0.112x    frame=  395 fps=6.9 q=58.0 size=     611kB time=00:00:06.44 bitrate= 777.4kbits/s speed=0.113x    frame=  399 fps=6.9 q=58.0 size=     611kB time=00:00:06.52 bitrate= 767.9kbits/s speed=0.112x    frame=  405 fps=6.9 q=58.0 size=     611kB time=00:00:06.64 bitrate= 754.0kbits/s speed=0.113x    frame=  407 fps=6.9 q=58.0 size=     611kB time=00:00:06.68 bitrate= 749.5kbits/s speed=0.113x    frame=  412 fps=6.9 q=58.0 size=     611kB time=00:00:06.78 bitrate= 738.5kbits/s speed=0.113x    frame=  414 fps=6.9 q=58.0 size=     611kB time=00:00:06.82 bitrate= 734.1kbits/s speed=0.113x    frame=  418 fps=6.8 q=58.0 size=     611kB time=00:00:06.90 bitrate= 725.6kbits/s speed=0.113x    frame=  423 fps=6.8 q=58.0 size=     611kB time=00:00:07.00 bitrate= 715.2kbits/s speed=0.113x    frame=  426 fps=6.8 q=58.0 size=     611kB time=00:00:07.06 bitrate= 709.2kbits/s speed=0.113x    frame=  430 fps=6.8 q=58.0 size=     611kB time=00:00:07.14 bitrate= 701.2kbits/s speed=0.113x    frame=  434 fps=6.8 q=58.0 size=     611kB time=00:00:07.22 bitrate= 693.5kbits/s speed=0.113x    frame=  440 fps=6.8 q=58.0 size=     611kB time=00:00:07.34 bitrate= 682.1kbits/s speed=0.113x    frame=  444 fps=6.8 q=58.0 size=     611kB time=00:00:07.42 bitrate= 674.8kbits/s speed=0.113x    frame=  447 fps=6.8 q=58.0 size=     611kB time=00:00:07.48 bitrate= 669.4kbits/s speed=0.113x    frame=  449 fps=6.7 q=58.0 size=     611kB time=00:00:07.52 bitrate= 665.8kbits/s speed=0.113x    frame=  455 fps=6.8 q=58.0 size=     611kB time=00:00:07.64 bitrate= 655.3kbits/s speed=0.113x    frame=  457 fps=6.7 q=58.0 size=     611kB time=00:00:07.68 bitrate= 651.9kbits/s speed=0.113x    frame=  461 fps=6.7 q=58.0 size=     611kB time=00:00:07.76 bitrate= 645.2kbits/s speed=0.113x    frame=  464 fps=6.7 q=58.0 size=     611kB time=00:00:07.82 bitrate= 640.3kbits/s speed=0.113x    frame=  467 fps=6.7 q=58.0 size=     611kB time=00:00:07.88 bitrate= 635.4kbits/s speed=0.113x    frame=  471 fps=6.7 q=58.0 size=     611kB time=00:00:07.96 bitrate= 629.0kbits/s speed=0.113x    frame=  475 fps=6.7 q=58.0 size=     611kB time=00:00:08.04 bitrate= 622.7kbits/s speed=0.113x    frame=  479 fps=6.7 q=58.0 size=     611kB time=00:00:08.12 bitrate= 616.6kbits/s speed=0.113x    frame=  483 fps=6.7 q=58.0 size=     611kB time=00:00:08.20 bitrate= 610.6kbits/s speed=0.113x    frame=  489 fps=6.7 q=58.0 size=     611kB time=00:00:08.32 bitrate= 601.8kbits/s speed=0.113x    frame=  491 fps=6.6 q=58.0 size=     611kB time=00:00:08.36 bitrate= 598.9kbits/s speed=0.113x    frame=  496 fps=6.7 q=58.0 size=     611kB time=00:00:08.46 bitrate= 591.8kbits/s speed=0.114x    frame=  498 fps=6.6 q=58.0 size=     611kB time=00:00:08.50 bitrate= 589.0kbits/s speed=0.113x    frame=  500 fps=5.8 q=-1.0 Lsize=    1304kB time=00:00:09.94 bitrate=1074.2kbits/s speed=0.116x    
video:1299kB audio:0kB subtitle:0kB other streams:0kB global headers:0kB muxing overhead: 0.328077%
bench: utime=326.528s
bench: maxrss=2603436kB
[libx264 @ 0x3f56120] frame I:3     Avg QP:50.63  size: 21579
[libx264 @ 0x3f56120] frame P:138   Avg QP:51.00  size:  5900
[libx264 @ 0x3f56120] frame B:359   Avg QP:51.00  size:  1256
[libx264 @ 0x3f56120] consecutive B-frames:  1.0%  2.0% 23.4% 73.6%
[libx264 @ 0x3f56120] mb I  I16..4: 26.1% 73.9%  0.0%
[libx264 @ 0x3f56120] mb P  I16..4:  6.9%  7.8%  0.0%  P16..4:  3.8%  0.0%  0.7%  0.0%  0.0%    skip:80.7%
[libx264 @ 0x3f56120] mb B  I16..4:  0.0%  0.0%  0.0%  B16..8:  5.9%  0.0%  0.0%  direct: 0.0%  skip:94.1%  L0: 5.1% L1:94.9% BI: 0.0%
[libx264 @ 0x3f56120] final ratefactor: 50.27
[libx264 @ 0x3f56120] 8x8 transform intra:55.7% inter:99.7%
[libx264 @ 0x3f56120] direct mvs  spatial:99.2% temporal:0.8%
[libx264 @ 0x3f56120] coded y,uvDC,uvAC intra: 1.3% 7.5% 0.0% inter: 0.0% 0.1% 0.0%
[libx264 @ 0x3f56120] i16 v,h,dc,p: 63% 29%  1%  7%
[libx264 @ 0x3f56120] i8 v,h,dc,ddl,ddr,vr,hd,vl,hu:  3%  1% 95%  0%  0%  0%  0%  0%  0%
[libx264 @ 0x3f56120] i4 v,h,dc,ddl,ddr,vr,hd,vl,hu: 25%  0%  4% 25% 23%  6%  6%  4%  6%
[libx264 @ 0x3f56120] i8c dc,h,v,p: 96%  4%  1%  0%
[libx264 @ 0x3f56120] Weighted P-Frames: Y:0.7% UV:0.0%
[libx264 @ 0x3f56120] ref P L0: 76.5%  0.1%  8.9%  4.2%  2.4%  3.7%  2.7%  1.6%  0.0%
[libx264 @ 0x3f56120] ref B L0: 92.8%  0.5%  4.6%  0.6%  0.8%  0.3%  0.3%
[libx264 @ 0x3f56120] ref B L1: 99.9%  0.1%
[libx264 @ 0x3f56120] kb/s:1063.83
